<svg xmlns="http://www.w3.org/2000/svg" width="22" height="21" viewBox="0 0 22 21" fill="none">
    <path d="M19.1667 10.4709C19.1667 8.20222 18.3741 6.27751 16.789 4.69679C15.2047 3.11684 13.275 2.32687 11 2.32687V0C12.4583 0 13.8245 0.276122 15.0985 0.828366C16.3717 1.38138 17.4801 2.12831 18.4235 3.06914C19.3662 4.0092 20.1148 5.11446 20.6693 6.38493C21.2231 7.65463 21.5 9.01662 21.5 10.4709H19.1667ZM14.5 10.4709C14.5 9.50139 14.1597 8.67729 13.4792 7.99862C12.7986 7.31995 11.9722 6.98061 11 6.98061V4.65374C12.6139 4.65374 13.9898 5.22072 15.1277 6.35468C16.2648 7.48942 16.8333 8.8615 16.8333 10.4709H14.5ZM20.275 21C17.7667 21 15.3217 20.4474 12.9402 19.3421C10.5578 18.2368 8.44811 16.7632 6.611 14.9211C4.77311 13.0789 3.29533 10.97 2.17767 8.59429C1.05922 6.21934 0.5 3.78116 0.5 1.27978V0.668975C0.5 0.455679 0.519444 0.252078 0.558333 0.0581717H7.38333L8.4625 5.90443L5.1375 9.24931C5.95417 10.6454 6.98006 11.9543 8.21517 13.1759C9.4495 14.3975 10.8056 15.4543 12.2833 16.3463L15.6667 12.9723L21.5 14.1357V20.9418C21.3056 20.9612 21.1014 20.976 20.8875 20.986C20.6736 20.9953 20.4694 21 20.275 21Z" fill="black"/>
</svg>