<svg xmlns="http://www.w3.org/2000/svg" width="18" height="18" viewBox="0 0 18 18" fill="none" class="svg replaced-svg">
    <path d="M13.725 9.9C13.725 10.1984 13.6065 10.4845 13.3955 10.6955C13.1845 10.9065 12.8984 11.025 12.6 11.025C12.3016 11.025 12.0155 10.9065 11.8045 10.6955C11.5935 10.4845 11.475 10.1984 11.475 9.9C11.475 9.60163 11.5935 9.31548 11.8045 9.1045C12.0155 8.89353 12.3016 8.775 12.6 8.775C12.8984 8.775 13.1845 8.89353 13.3955 9.1045C13.6065 9.31548 13.725 9.60163 13.725 9.9ZM18 9C18 13.95 13.95 18 9 18H0V9C0 4.05 4.05 0 9 0C13.95 0 18 4.05 18 9ZM4.5 14.4C5.769 15.507 7.2 16.2 9 16.2C12.969 16.2 16.2 12.969 16.2 9C16.2 8.289 16.092 7.605 15.903 6.966C15.255 7.119 14.58 7.2 13.878 7.2C12.078 7.2 10.413 6.66 9 5.751C9 5.751 7.686 10.584 5.427 9.9C4.833 9.72 4.5 10.179 4.5 10.8" fill="black"></path>
</svg>